DDR Presents


Bollywood Movie


Bhoot Returns (2012)

720p HDRip x264 AC3

Complete name                            : 720phd-bhoot-ddr.mkv
Source					 : 720p HD [DDR]
Ripper					 : th3obr0

Format                                   : Matroska
Format version                           : Version 2
File size                                : 2.18 GiB
Duration                                 : 1h 24mn
Overall bit rate                         : 3 694 Kbps
Encoded date                             : UTC 2012-12-29 22:42:14
Writing application                      : mkvmerge v5.7.0 ('The Whirlwind') built on Jul  8 2012 20:08:51
Writing library                          : libebml v1.2.3 + libmatroska v1.3.0

Video
ID                                       : 1
Format                                   : AVC
Format/Info                              : Advanced Video Codec
Format profile                           : High@L4.2
Format settings, CABAC                   : Yes
Format settings, ReFrames                : 4 frames
Codec ID                                 : V_MPEG4/ISO/AVC
Duration                                 : 1h 24mn
Bit rate                                 : 3 244 Kbps
Width                                    : 1 280 pixels
Height                                   : 544 pixels
Display aspect ratio                     : 2.35:1
Frame rate                               : 25.000 fps
Color space                              : YUV
Chroma subsampling                       : 4:2:0
Bit depth                                : 8 bits
Scan type                                : Progressive
Bits/(Pixel*Frame)                       : 0.186
Stream size                              : 1.87 GiB (86%)
Title                                    : Bhoot 720p [DDR]
Writing library                          : x264 core 129 r2230 1cffe9f
Language                                 : Hindi
Default                                  : Yes
Forced                                   : No

Audio
ID                                       : 2
Format                                   : AC-3
Format/Info                              : Audio Coding 3
Mode extension                           : CM (complete main)
Format settings, Endianness              : Big
Codec ID                                 : A_AC3
Duration                                 : 1h 24mn
Bit rate mode                            : Constant
Bit rate                                 : 448 Kbps
Channel(s)                               : 2 channels
Channel positions                        : Front: L R
Sampling rate                            : 48.0 KHz
Bit depth                                : 16 bits
Compression mode                         : Lossy
Delay relative to video                  : 8ms
Stream size                              : 271 MiB (12%)
Title                                    : Hindi 2.0 [DDR]
Language                                 : Hindi
Default                                  : Yes
Forced                                   : No

 
http://img707.imageshack.us/img707/1518/30628.png 
http://img27.imageshack.us/img27/5355/44425.png 
http://img84.imageshack.us/img84/4329/58626.png 
http://img38.imageshack.us/img38/4777/28278.png